<svg id="Layer_3" enable-background="new 0 0 64 64" height="512" viewBox="0 0 64 64" width="512" xmlns="http://www.w3.org/2000/svg"><g><path d="m21.29 29.55-.29.45-9.622 15.744c-.856 1.402-2.379 2.256-4.021 2.256-1.484 0-2.88-.698-3.771-1.885l-1.586-2.115 2.303.768c.462.154.945.232 1.432.232 1.426 0 2.768-.671 3.624-1.812 1.082-1.443 1.854-3.095 2.267-4.85l1.845-7.843c1.006-4.273 2.973-8.261 5.753-11.659 3.023-3.694 7.544-5.836 12.316-5.836 3.538 0 6.976 1.179 9.769 3.352l3.406 2.649c.833.647 1.858.999 2.913.999 1.493 0 2.899-.703 3.795-1.898l1.577-2.102c-1.281-1.281-2-3.017-2-4.828v-2.172l1.685 1.011c2.057 1.234 3.315 3.457 3.315 5.855v.134l3 1v2l3 3-1 2h-2l-2-1h-3l-1.995 3.325c-.644 1.073-1.687 1.846-2.901 2.149-1.336.334-2.459 1.235-3.075 2.467l-3.311 6.622c-.44.88-1.34 1.437-2.326 1.437-.87 0-1.682-.435-2.165-1.158l-1.227-1.842c1.839 0 3.519-1.039 4.342-2.683l.158-.317h-1.672c-1.797 0-3.521-.708-4.799-1.971l-10.029 20.971 6-1 2.724.681c.75.187 1.276.861 1.276 1.634 0 .931-.754 1.685-1.685 1.685h-11.315l-1-3 4.699-16.916c.194-.698.122-1.442-.202-2.09-.32-.64-.864-1.141-1.529-1.407-1.085-.434-2.001-1.147-2.678-2.037z" fill="#976947"/><path d="m55 13.855c0-.616-.07-1.224-.192-1.822-.548-.806-1.26-1.505-2.123-2.023l-1.685-1.01v2.172c0 1.811.719 3.548 2 4.828l-1.577 2.102c-.896 1.195-2.302 1.898-3.795 1.898-1.055 0-2.08-.352-2.913-.999l-3.406-2.649c-2.793-2.173-6.23-3.352-9.769-3.352-4.773 0-9.293 2.142-12.315 5.836-2.269 2.773-3.986 5.943-5.091 9.337 3.739 1.004 7.932 1.567 12.36 1.567 15.743 0 28.506-7.112 28.506-15.885z" fill="#c18e59"/><path d="m25 52 6-1h8.315c.931 0 1.685-.754 1.685-1.685 0-.773-.526-1.447-1.276-1.634l-2.724-.681-6 1 6.209-15.524c-.806-.335-1.548-.823-2.18-1.447z" fill="#674025"/><path d="m46.03 30.94-2.03 4.06 3 2h3l2 1h2l1-2-3-3v-2l-3.471-2.314c-1.075.424-1.976 1.208-2.499 2.254z" fill="#c18e59"/><g><path d="m55.5 21c-.827 0-1.5-.673-1.5-1.5s.673-1.5 1.5-1.5 1.5.673 1.5 1.5-.673 1.5-1.5 1.5z" fill="#674025"/></g><g><path d="m48.5 34c-.827 0-1.5-.673-1.5-1.5s.673-1.5 1.5-1.5 1.5.673 1.5 1.5-.673 1.5-1.5 1.5z" fill="#674025"/></g></g></svg>